<svg xmlns="http://www.w3.org/2000/svg" viewBox="0 0 106.88 106.88"><defs><style>.cls-1{fill:#fff;}</style></defs><g id="Calque_2" data-name="Calque 2"><g id="Calque_1-2" data-name="Calque 1"><path class="cls-1" d="M54.27,106.88H52.81a15.63,15.63,0,0,1-1.81-1c-7.28-5.1-14.53-10.24-21.82-15.32C21.4,85.18,13.54,79.9,5.81,74.41A61.73,61.73,0,0,1,0,69.1V33c.72-.8,1.4-1.66,2.19-2.4A10.51,10.51,0,0,1,4,29.39Q27.75,15,51.5.58A3.22,3.22,0,0,1,54.84.37c1.3.66,2.6,1.33,3.84,2.09Q81.84,16.61,105,30.78a3.78,3.78,0,0,1,1.89,3.56q0,17.16,0,34.33a2.8,2.8,0,0,1-1,2.37c-1.08.88-2.15,1.77-3.29,2.56Q83.38,86.85,64.2,100.06ZM9.57,34c.19.17.26.24.34.3q9.93,6.9,19.83,13.83c.61.43,1,.11,1.37-.15,6.07-3.72,12.12-7.46,18.21-11.16a1.51,1.51,0,0,0,.79-1.5q0-12.42,0-24.83V9.33ZM56.77,9.32c0,8.94,0,17.63,0,26.32,0,.69.4.89.84,1.15Q66.76,42.37,75.91,48a1.2,1.2,0,0,0,1.55-.05c6.34-4.45,12.71-8.86,19.07-13.29.24-.17.46-.37.77-.62Zm40.55,59.6a5.8,5.8,0,0,0-.51-.38Q87.2,62.69,77.6,56.82c-.62-.38-1-.15-1.47.18q-9.27,6.47-18.57,12.9a1.67,1.67,0,0,0-.8,1.61q0,12.21,0,24.41v1.21Zm-87.81,0L50,97.07c0-.28.05-.4.05-.53q0-12.72,0-25.44a1.55,1.55,0,0,0-.61-1c-6.26-4.39-12.54-8.74-18.8-13.12a1.14,1.14,0,0,0-1.47,0c-4.08,2.51-8.18,5-12.27,7.48ZM36.29,52.59c.19.16.26.24.35.3q8.11,5.65,16.22,11.32c.52.37.84.22,1.27-.09,3.5-2.45,7-4.88,10.51-7.32l5.94-4.14a4.41,4.41,0,0,0-.38-.31q-8.13-5-16.28-9.89a1.28,1.28,0,0,0-1.09.08c-2.24,1.31-4.45,2.68-6.68,4ZM6.75,40.31V62.57L24,52.3Zm93.39,0L83,52.25l17.15,10.43Z"/></g></g></svg>