<svg xmlns="http://www.w3.org/2000/svg" viewBox="0 0 149.19 149.26"><defs><style>.cls-1{fill:#fff;}</style></defs><g id="Calque_2" data-name="Calque 2"><g id="Calque_1-2" data-name="Calque 1"><path class="cls-1" d="M149.19,69.71v9.9c-.09.42-.21.84-.27,1.26-.33,2.54-.5,5.12-1,7.63a73.82,73.82,0,0,1-27.75,45.17A71.67,71.67,0,0,1,87.58,148.1c-2.66.45-5.35.77-8,1.16H69.64c-1.77-.22-3.55-.41-5.31-.67-14.41-2.11-27.39-7.61-38.22-17.36C3.64,111-4.46,85.9,2.33,56.46c4.15-18,14.4-32.3,29.53-42.87C49.46,1.3,69-2.59,90,1.66A72.26,72.26,0,0,1,129.67,24.4,72.76,72.76,0,0,1,148,61.54C148.5,64.25,148.81,67,149.19,69.71ZM35.61,123.49l.53.46A62.24,62.24,0,0,0,72,137.12,63.15,63.15,0,0,0,99,132.27a1.62,1.62,0,0,0,1.16-2.16A239.71,239.71,0,0,0,88.27,87.55a9.5,9.5,0,0,0-.47-1C68.43,92.49,48.89,106.54,35.61,123.49Zm-23.3-51.4c-2.7,9.83,6.56,36.68,14.71,42.77A129.38,129.38,0,0,1,52.33,91.15a114.62,114.62,0,0,1,31-15.79c-2.18-4.64-4.28-9.09-6.4-13.61a187.43,187.43,0,0,1-32,7.76A213,213,0,0,1,12.31,72.09ZM71.12,51C67.84,44,52.4,20.32,49.33,17.52,30.35,25.49,17,44,14,60.06A200.1,200.1,0,0,0,71.12,51ZM123.18,35.3A124.88,124.88,0,0,1,88.4,57.36l6.89,15a106.34,106.34,0,0,1,41.79.39A62.27,62.27,0,0,0,123.18,35.3Zm-8.48-8.58A61.94,61.94,0,0,0,80.8,12.41a55.73,55.73,0,0,0-18.68,1l21,33.09A110.25,110.25,0,0,0,114.7,26.72ZM99.76,83.65a252.49,252.49,0,0,1,11.74,41.5c13.55-10.38,21.84-23.61,24.85-40.26A94.65,94.65,0,0,0,99.76,83.65Z"/></g></g></svg>