<svg xmlns="http://www.w3.org/2000/svg" viewBox="0 0 108.44 105.76"><defs><style>.cls-1{fill:#fff;fill-rule:evenodd;}</style></defs><g id="Calque_2" data-name="Calque 2"><g id="Calque_1-2" data-name="Calque 1"><path class="cls-1" d="M54.22,0A54.22,54.22,0,0,0,37.07,105.66c2.71.47,3.73-1.15,3.73-2.58s-.07-5.55-.07-10.1c-13.62,2.51-17.15-3.32-18.23-6.37-.61-1.56-3.25-6.37-5.56-7.65-1.89-1-4.61-3.53-.06-3.6,4.27-.06,7.31,3.93,8.33,5.56,4.88,8.2,12.68,5.9,15.79,4.47a11.45,11.45,0,0,1,3.46-7.25c-12.06-1.35-24.67-6-24.67-26.77A21.1,21.1,0,0,1,25.35,36.8c-.55-1.35-2.44-6.91.54-14.37,0,0,4.54-1.42,14.91,5.56a51.12,51.12,0,0,1,27.11,0c10.37-7,14.91-5.56,14.91-5.56,3,7.46,1.08,13,.54,14.37a21,21,0,0,1,5.56,14.57c0,20.81-12.68,25.42-24.74,26.77,2,1.7,3.66,5,3.66,10,0,7.25-.07,13.08-.07,14.91,0,1.43,1,3.12,3.73,2.58A54.25,54.25,0,0,0,54.22,0Z"/></g></g></svg>